<svg width="1078" height="341" viewBox="0 0 1078 341" fill="none" xmlns="http://www.w3.org/2000/svg">
<path d="M80.24 126.67C80.24 82.02 100.45 65.1 131 65.1C156.38 65.1 170.48 80.14 170.48 105.05C170.48 147.82 115.49 173.2 57.21 221.61C28.54 245.58 0.340001 278.95 0.340001 333H250.38V268.61H112.67V267.67C154.5 226.31 250.38 184.95 250.38 99.41C250.38 37.37 203.38 0.709992 133.35 0.709992C45.46 0.709992 5.04 50.53 5.04 126.67H80.24ZM419.551 340.52C516.841 340.52 561.961 262.97 561.961 170.85C561.961 78.73 516.841 0.709992 419.551 0.709992C322.261 0.709992 276.671 78.73 276.671 170.85C276.671 262.97 322.261 340.52 419.551 340.52ZM419.551 276.13C372.081 276.13 356.571 235.24 356.571 170.85C356.571 106.46 372.081 65.1 419.551 65.1C467.021 65.1 482.061 106.46 482.061 170.85C482.061 235.24 467.021 276.13 419.551 276.13ZM658.56 126.67C658.56 82.02 678.77 65.1 709.32 65.1C734.7 65.1 748.8 80.14 748.8 105.05C748.8 147.82 693.81 173.2 635.53 221.61C606.86 245.58 578.66 278.95 578.66 333H828.7V268.61H690.99V267.67C732.82 226.31 828.7 184.95 828.7 99.41C828.7 37.37 781.7 0.709992 711.67 0.709992C623.78 0.709992 583.36 50.53 583.36 126.67H658.56ZM932.596 107.87C932.596 76.85 955.626 65.1 980.536 65.1C1006.86 65.1 1022.84 75.44 1022.84 103.17C1022.84 127.61 1005.45 138.89 970.666 138.89H956.096V193.88H972.546C1010.15 193.88 1032.24 205.63 1032.24 237.12C1032.24 261.56 1016.26 276.13 982.416 276.13C940.586 276.13 923.196 255.92 923.196 218.32H847.996C847.996 296.34 896.406 340.52 988.056 340.52C1059.97 340.52 1112.14 305.74 1112.14 241.82C1112.14 201.87 1095.69 174.61 1055.74 161.92V160.98C1082.06 147.35 1102.74 125.26 1102.74 90.01C1102.74 32.67 1047.28 0.709992 986.646 0.709992C903.456 0.709992 857.396 45.83 857.396 107.87H932.596Z" fill="white"/>
<path d="M80.24 126.67V128.67H82.24V126.67H80.24ZM57.21 221.61L55.9321 220.072L55.9272 220.076L57.21 221.61ZM0.340001 333H-1.66V335H0.340001V333ZM250.38 333V335H252.38V333H250.38ZM250.38 268.61H252.38V266.61H250.38V268.61ZM112.67 268.61H110.67V270.61H112.67V268.61ZM112.67 267.67L111.264 266.248L110.67 266.835V267.67H112.67ZM5.04 126.67H3.04V128.67H5.04V126.67ZM82.24 126.67C82.24 104.607 87.2375 89.7834 95.6472 80.4826C104.023 71.2199 116.089 67.1 131 67.1V63.1C115.361 63.1 102.047 67.4401 92.6803 77.7999C83.3475 88.1215 78.24 104.083 78.24 126.67H82.24ZM131 67.1C143.293 67.1 152.593 70.7335 158.825 77.1295C165.065 83.5335 168.48 92.9646 168.48 105.05H172.48C172.48 92.2254 168.845 81.6814 161.69 74.338C154.527 66.9865 144.087 63.1 131 63.1V67.1ZM168.48 105.05C168.48 125.477 155.384 141.994 134.41 159.686C123.955 168.506 111.678 177.51 98.3075 187.38C84.9573 197.235 70.551 207.928 55.9321 220.072L58.4879 223.148C73.009 211.087 87.3315 200.454 100.683 190.598C114.015 180.757 126.413 171.666 136.99 162.744C158.081 144.951 172.48 127.393 172.48 105.05H168.48ZM55.9272 220.076C27.0361 244.23 -1.66 278.109 -1.66 333H2.34C2.34 279.791 30.0439 246.93 58.4928 223.144L55.9272 220.076ZM0.340001 335H250.38V331H0.340001V335ZM252.38 333V268.61H248.38V333H252.38ZM250.38 266.61H112.67V270.61H250.38V266.61ZM114.67 268.61V267.67H110.67V268.61H114.67ZM114.076 269.092C124.413 258.871 138.126 248.617 153.026 237.566C167.88 226.548 183.865 214.771 198.547 201.596C227.907 175.249 252.38 143.024 252.38 99.41H248.38C248.38 141.336 224.913 172.561 195.875 198.619C181.358 211.646 165.531 223.31 150.643 234.353C135.8 245.363 121.842 255.789 111.264 266.248L114.076 269.092ZM252.38 99.41C252.38 67.84 240.398 42.5813 219.399 25.2524C198.445 7.96042 168.694 -1.29001 133.35 -1.29001V2.70999C168.036 2.70999 196.8 11.7896 216.853 28.3376C236.862 44.8487 248.38 68.94 248.38 99.41H252.38ZM133.35 -1.29001C89.0294 -1.29001 56.3647 11.2799 34.7934 33.7525C13.2366 56.21 3.04 88.2642 3.04 126.67H7.04C7.04 88.9358 17.0534 58.01 37.6791 36.5225C58.2903 15.0501 89.7806 2.70999 133.35 2.70999V-1.29001ZM5.04 128.67H80.24V124.67H5.04V128.67ZM419.551 342.52C468.796 342.52 504.999 322.859 528.833 291.439C552.613 260.09 563.961 217.204 563.961 170.85H559.961C559.961 216.616 548.748 258.565 525.646 289.021C502.598 319.406 467.595 338.52 419.551 338.52V342.52ZM563.961 170.85C563.961 124.497 552.613 81.4947 528.835 50.0292C505.003 18.4919 468.801 -1.29001 419.551 -1.29001V2.70999C467.59 2.70999 502.593 21.9381 525.644 52.4408C548.748 83.0153 559.961 125.083 559.961 170.85H563.961ZM419.551 -1.29001C370.301 -1.29001 333.984 18.4909 310.034 50.0254C286.138 81.4899 274.671 124.492 274.671 170.85H278.671C278.671 125.088 289.998 83.0201 313.22 52.4446C336.388 21.9391 371.51 2.70999 419.551 2.70999V-1.29001ZM274.671 170.85C274.671 217.208 286.138 260.094 310.036 291.443C333.988 322.86 370.306 342.52 419.551 342.52V338.52C371.505 338.52 336.383 319.405 313.217 289.017C289.998 258.561 278.671 216.612 278.671 170.85H274.671ZM419.551 274.13C407.977 274.13 398.474 271.64 390.707 267.016C382.94 262.393 376.786 255.563 372.021 246.69C362.452 228.869 358.571 202.961 358.571 170.85H354.571C354.571 203.129 358.445 229.861 368.497 248.582C373.544 257.981 380.168 265.398 388.661 270.453C397.152 275.508 407.39 278.13 419.551 278.13V274.13ZM358.571 170.85C358.571 138.74 362.451 112.712 372.024 94.7702C376.79 85.8367 382.947 78.9488 390.714 74.283C398.48 69.6172 407.981 67.1 419.551 67.1V63.1C407.386 63.1 397.146 65.7527 388.654 70.8541C380.162 75.9556 373.54 83.432 368.495 92.8873C358.445 111.723 354.571 138.57 354.571 170.85H358.571ZM419.551 67.1C431.121 67.1 440.59 69.6173 448.31 74.2805C456.031 78.9438 462.129 85.8286 466.838 94.7614C476.296 112.704 480.061 138.733 480.061 170.85H484.061C484.061 138.577 480.305 111.731 470.376 92.8961C465.391 83.4401 458.829 75.9606 450.378 70.8566C441.928 65.7527 431.716 63.1 419.551 63.1V67.1ZM480.061 170.85C480.061 202.968 476.296 228.877 466.84 246.699C462.133 255.571 456.037 262.398 448.317 267.019C440.596 271.64 431.125 274.13 419.551 274.13V278.13C431.712 278.13 441.922 275.508 450.371 270.451C458.822 265.393 465.387 257.973 470.374 248.574C480.306 229.853 484.061 203.122 484.061 170.85H480.061ZM658.56 126.67V128.67H660.56V126.67H658.56ZM635.53 221.61L634.252 220.072L634.247 220.076L635.53 221.61ZM578.66 333H576.66V335H578.66V333ZM828.7 333V335H830.7V333H828.7ZM828.7 268.61H830.7V266.61H828.7V268.61ZM690.99 268.61H688.99V270.61H690.99V268.61ZM690.99 267.67L689.584 266.248L688.99 266.835V267.67H690.99ZM583.36 126.67H581.36V128.67H583.36V126.67ZM660.56 126.67C660.56 104.607 665.558 89.7834 673.968 80.4826C682.343 71.2199 694.409 67.1 709.32 67.1V63.1C693.681 63.1 680.368 67.4401 671.001 77.7999C661.668 88.1215 656.56 104.083 656.56 126.67H660.56ZM709.32 67.1C721.613 67.1 730.913 70.7335 737.145 77.1295C743.385 83.5335 746.8 92.9646 746.8 105.05H750.8C750.8 92.2254 747.165 81.6814 740.01 74.338C732.847 66.9865 722.407 63.1 709.32 63.1V67.1ZM746.8 105.05C746.8 125.477 733.704 141.994 712.731 159.686C702.275 168.506 689.998 177.51 676.628 187.38C663.278 197.235 648.871 207.928 634.252 220.072L636.808 223.148C651.329 211.087 665.652 200.454 679.003 190.598C692.335 180.757 704.733 171.666 715.31 162.744C736.402 144.951 750.8 127.393 750.8 105.05H746.8ZM634.247 220.076C605.356 244.23 576.66 278.109 576.66 333H580.66C580.66 279.791 608.364 246.93 636.813 223.144L634.247 220.076ZM578.66 335H828.7V331H578.66V335ZM830.7 333V268.61H826.7V333H830.7ZM828.7 266.61H690.99V270.61H828.7V266.61ZM692.99 268.61V267.67H688.99V268.61H692.99ZM692.397 269.092C702.734 258.871 716.446 248.617 731.346 237.566C746.2 226.548 762.186 214.771 776.867 201.596C806.227 175.249 830.7 143.024 830.7 99.41H826.7C826.7 141.336 803.234 172.561 774.196 198.619C759.679 211.646 743.851 223.31 728.963 234.353C714.12 245.363 700.162 255.789 689.584 266.248L692.397 269.092ZM830.7 99.41C830.7 67.84 818.719 42.5813 797.72 25.2524C776.765 7.96042 747.014 -1.29001 711.67 -1.29001V2.70999C746.357 2.70999 775.121 11.7896 795.174 28.3376C815.182 44.8487 826.7 68.94 826.7 99.41H830.7ZM711.67 -1.29001C667.35 -1.29001 634.685 11.2799 613.114 33.7525C591.557 56.21 581.36 88.2642 581.36 126.67H585.36C585.36 88.9358 595.374 58.01 615.999 36.5225C636.611 15.0501 668.101 2.70999 711.67 2.70999V-1.29001ZM583.36 128.67H658.56V124.67H583.36V128.67ZM932.596 107.87V109.87H934.596V107.87H932.596ZM956.096 138.89V136.89H954.096V138.89H956.096ZM956.096 193.88H954.096V195.88H956.096V193.88ZM923.196 218.32H925.196V216.32H923.196V218.32ZM847.996 218.32V216.32H845.996V218.32H847.996ZM1055.74 161.92H1053.74V163.383L1055.13 163.826L1055.74 161.92ZM1055.74 160.98L1054.82 159.204L1053.74 159.763V160.98H1055.74ZM857.396 107.87H855.396V109.87H857.396V107.87ZM934.596 107.87C934.596 92.9162 940.114 82.8369 948.443 76.4385C956.853 69.9777 968.356 67.1 980.536 67.1V63.1C967.806 63.1 955.339 66.0972 946.006 73.2664C936.593 80.498 930.596 91.8038 930.596 107.87H934.596ZM980.536 67.1C993.492 67.1 1003.51 69.6547 1010.28 75.2747C1016.97 80.832 1020.84 89.6947 1020.84 103.17H1024.84C1024.84 88.9152 1020.71 78.7429 1012.83 72.1978C1005.03 65.7152 993.9 63.1 980.536 63.1V67.1ZM1020.84 103.17C1020.84 114.844 1016.73 123.096 1008.67 128.538C1000.47 134.081 987.909 136.89 970.666 136.89V140.89C988.204 140.89 1001.73 138.059 1010.91 131.852C1020.25 125.544 1024.84 115.936 1024.84 103.17H1020.84ZM970.666 136.89H956.096V140.89H970.666V136.89ZM954.096 138.89V193.88H958.096V138.89H954.096ZM956.096 195.88H972.546V191.88H956.096V195.88ZM972.546 195.88C991.21 195.88 1005.65 198.81 1015.38 205.351C1024.95 211.786 1030.24 221.911 1030.24 237.12H1034.24C1034.24 220.839 1028.48 209.344 1017.61 202.032C1006.89 194.825 991.482 191.88 972.546 191.88V195.88ZM1030.24 237.12C1030.24 248.876 1026.41 258 1018.75 264.239C1011.02 270.534 999.091 274.13 982.416 274.13V278.13C999.581 278.13 1012.56 274.441 1021.28 267.341C1030.07 260.185 1034.24 249.804 1034.24 237.12H1030.24ZM982.416 274.13C961.791 274.13 947.604 269.147 938.547 259.924C929.484 250.694 925.196 236.85 925.196 218.32H921.196C921.196 237.39 925.603 252.451 935.693 262.726C945.788 273.008 961.211 278.13 982.416 278.13V274.13ZM923.196 216.32H847.996V220.32H923.196V216.32ZM845.996 218.32C845.996 257.757 858.246 288.913 882.334 310.177C906.382 331.406 941.939 342.52 988.056 342.52V338.52C942.523 338.52 908.051 327.544 884.981 307.178C861.951 286.848 849.996 256.903 849.996 218.32H845.996ZM988.056 342.52C1024.3 342.52 1055.79 333.757 1078.27 316.734C1100.81 299.663 1114.14 274.392 1114.14 241.82H1110.14C1110.14 273.168 1097.38 297.247 1075.85 313.546C1054.27 329.893 1023.72 338.52 988.056 338.52V342.52ZM1114.14 241.82C1114.14 221.58 1109.97 204.347 1100.57 190.523C1091.16 176.681 1076.65 166.464 1056.34 160.014L1055.13 163.826C1074.78 170.066 1088.46 179.824 1097.26 192.772C1106.08 205.738 1110.14 222.11 1110.14 241.82H1114.14ZM1057.74 161.92V160.98H1053.74V161.92H1057.74ZM1056.66 162.756C1083.4 148.908 1104.74 126.247 1104.74 90.01H1100.74C1100.74 124.273 1080.72 145.792 1054.82 159.204L1056.66 162.756ZM1104.74 90.01C1104.74 60.6045 1090.48 37.704 1068.58 22.2243C1046.73 6.78003 1017.28 -1.29001 986.646 -1.29001V2.70999C1016.64 2.70999 1045.23 10.6199 1066.27 25.4907C1087.26 40.326 1100.74 62.0755 1100.74 90.01H1104.74ZM986.646 -1.29001C944.701 -1.29001 911.879 10.0872 889.513 29.5151C867.122 48.965 855.396 76.3264 855.396 107.87H859.396C859.396 77.3736 870.7 51.155 892.136 32.5349C913.598 13.8928 945.401 2.70999 986.646 2.70999V-1.29001ZM857.396 109.87H932.596V105.87H857.396V109.87Z" fill="#5F5F5F"/>
</svg>
