<svg width="893" height="220" viewBox="0 0 893 220" fill="none" xmlns="http://www.w3.org/2000/svg">
<path d="M0.9 0.49999V215H36.6V0.49999H0.9ZM73.5422 215H109.242V54.5H109.842L206.742 215H246.342V0.49999H210.642V161.6H210.042L113.442 0.49999H73.5422V215ZM318.715 93.2V30.8H433.015V0.49999H283.015V215H318.715V123.8H411.415V93.2H318.715ZM459.396 0.49999V215H495.096V0.49999H459.396ZM532.038 215H567.738V54.5H568.338L665.238 215H704.838V0.49999H669.138V161.6H668.538L571.938 0.49999H532.038V215ZM731.911 156.5C731.911 198.5 766.711 219.5 812.011 219.5C857.311 219.5 892.411 198.5 892.411 156.5C892.411 128 873.211 113.3 853.711 104.6V104C868.111 96.2 882.211 83.3 882.211 59.9C882.211 24.2 852.511 3.19999 812.011 3.19999C771.511 3.19999 741.811 24.2 741.811 59.9C741.811 83.3 755.611 96.2 770.311 104V104.6C750.511 113.3 731.911 128 731.911 156.5ZM812.011 91.7C788.911 91.7 774.511 81.5 774.511 61.4C774.511 41.6 788.911 30.8 812.011 30.8C835.111 30.8 849.511 41.6 849.511 61.4C849.511 81.5 835.111 91.7 812.011 91.7ZM812.011 191C784.111 191 766.411 177.2 766.411 154.4C766.411 131.9 784.111 118.1 812.011 118.1C840.211 118.1 857.611 131.9 857.611 154.4C857.611 177.2 840.211 191 812.011 191Z" fill="black"/>
<path d="M0.9 0.499992V-4.50001H-4.1V0.499992H0.9ZM0.9 215H-4.1V220H0.9V215ZM36.6 215V220H41.6V215H36.6ZM36.6 0.499992H41.6V-4.50001H36.6V0.499992ZM-4.1 0.499992V215H5.9V0.499992H-4.1ZM0.9 220H36.6V210H0.9V220ZM41.6 215V0.499992H31.6V215H41.6ZM36.6 -4.50001H0.9V5.49999H36.6V-4.50001ZM73.5422 215H68.5422V220H73.5422V215ZM109.242 215V220H114.242V215H109.242ZM109.242 54.5V49.5H104.242V54.5H109.242ZM109.842 54.5L114.123 51.9158L112.664 49.5H109.842V54.5ZM206.742 215L202.462 217.584L203.92 220H206.742V215ZM246.342 215V220H251.342V215H246.342ZM246.342 0.499992H251.342V-4.50001H246.342V0.499992ZM210.642 0.499992V-4.50001H205.642V0.499992H210.642ZM210.642 161.6V166.6H215.642V161.6H210.642ZM210.042 161.6L205.754 164.171L207.21 166.6H210.042V161.6ZM113.442 0.499992L117.73 -2.07131L116.274 -4.50001H113.442V0.499992ZM73.5422 0.499992V-4.50001H68.5422V0.499992H73.5422ZM73.5422 220H109.242V210H73.5422V220ZM114.242 215V54.5H104.242V215H114.242ZM109.242 59.5H109.842V49.5H109.242V59.5ZM105.562 57.0842L202.462 217.584L211.023 212.416L114.123 51.9158L105.562 57.0842ZM206.742 220H246.342V210H206.742V220ZM251.342 215V0.499992H241.342V215H251.342ZM246.342 -4.50001H210.642V5.49999H246.342V-4.50001ZM205.642 0.499992V161.6H215.642V0.499992H205.642ZM210.642 156.6H210.042V166.6H210.642V156.6ZM214.33 159.029L117.73 -2.07131L109.154 3.0713L205.754 164.171L214.33 159.029ZM113.442 -4.50001H73.5422V5.49999H113.442V-4.50001ZM68.5422 0.499992V215H78.5422V0.499992H68.5422ZM318.715 93.2H313.715V98.2H318.715V93.2ZM318.715 30.8V25.8H313.715V30.8H318.715ZM433.015 30.8V35.8H438.015V30.8H433.015ZM433.015 0.499992H438.015V-4.50001H433.015V0.499992ZM283.015 0.499992V-4.50001H278.015V0.499992H283.015ZM283.015 215H278.015V220H283.015V215ZM318.715 215V220H323.715V215H318.715ZM318.715 123.8V118.8H313.715V123.8H318.715ZM411.415 123.8V128.8H416.415V123.8H411.415ZM411.415 93.2H416.415V88.2H411.415V93.2ZM323.715 93.2V30.8H313.715V93.2H323.715ZM318.715 35.8H433.015V25.8H318.715V35.8ZM438.015 30.8V0.499992H428.015V30.8H438.015ZM433.015 -4.50001H283.015V5.49999H433.015V-4.50001ZM278.015 0.499992V215H288.015V0.499992H278.015ZM283.015 220H318.715V210H283.015V220ZM323.715 215V123.8H313.715V215H323.715ZM318.715 128.8H411.415V118.8H318.715V128.8ZM416.415 123.8V93.2H406.415V123.8H416.415ZM411.415 88.2H318.715V98.2H411.415V88.2ZM459.396 0.499992V-4.50001H454.396V0.499992H459.396ZM459.396 215H454.396V220H459.396V215ZM495.096 215V220H500.096V215H495.096ZM495.096 0.499992H500.096V-4.50001H495.096V0.499992ZM454.396 0.499992V215H464.396V0.499992H454.396ZM459.396 220H495.096V210H459.396V220ZM500.096 215V0.499992H490.096V215H500.096ZM495.096 -4.50001H459.396V5.49999H495.096V-4.50001ZM532.038 215H527.038V220H532.038V215ZM567.738 215V220H572.738V215H567.738ZM567.738 54.5V49.5H562.738V54.5H567.738ZM568.338 54.5L572.619 51.9158L571.16 49.5H568.338V54.5ZM665.238 215L660.958 217.584L662.416 220H665.238V215ZM704.838 215V220H709.838V215H704.838ZM704.838 0.499992H709.838V-4.50001H704.838V0.499992ZM669.138 0.499992V-4.50001H664.138V0.499992H669.138ZM669.138 161.6V166.6H674.138V161.6H669.138ZM668.538 161.6L664.25 164.171L665.706 166.6H668.538V161.6ZM571.938 0.499992L576.226 -2.07131L574.77 -4.50001H571.938V0.499992ZM532.038 0.499992V-4.50001H527.038V0.499992H532.038ZM532.038 220H567.738V210H532.038V220ZM572.738 215V54.5H562.738V215H572.738ZM567.738 59.5H568.338V49.5H567.738V59.5ZM564.058 57.0842L660.958 217.584L669.519 212.416L572.619 51.9158L564.058 57.0842ZM665.238 220H704.838V210H665.238V220ZM709.838 215V0.499992H699.838V215H709.838ZM704.838 -4.50001H669.138V5.49999H704.838V-4.50001ZM664.138 0.499992V161.6H674.138V0.499992H664.138ZM669.138 156.6H668.538V166.6H669.138V156.6ZM672.826 159.029L576.226 -2.07131L567.65 3.0713L664.25 164.171L672.826 159.029ZM571.938 -4.50001H532.038V5.49999H571.938V-4.50001ZM527.038 0.499992V215H537.038V0.499992H527.038ZM853.711 104.6H848.711V107.844L851.674 109.166L853.711 104.6ZM853.711 104L851.33 99.6035L848.711 101.022V104H853.711ZM770.311 104H775.311V100.993L772.655 99.5833L770.311 104ZM770.311 104.6L772.322 109.178L775.311 107.864V104.6H770.311ZM726.911 156.5C726.911 179.074 736.355 196.333 752.023 207.786C767.501 219.102 788.674 224.5 812.011 224.5V214.5C790.048 214.5 771.171 209.398 757.924 199.714C744.866 190.167 736.911 175.926 736.911 156.5H726.911ZM812.011 224.5C835.348 224.5 856.59 219.102 872.139 207.794C887.878 196.348 897.411 179.091 897.411 156.5H887.411C887.411 175.909 879.394 190.152 866.258 199.706C852.932 209.398 833.974 214.5 812.011 214.5V224.5ZM897.411 156.5C897.411 125.037 875.928 109.037 855.748 100.034L851.674 109.166C870.494 117.563 887.411 130.963 887.411 156.5H897.411ZM858.711 104.6V104H848.711V104.6H858.711ZM856.092 108.396C871.331 100.142 887.211 85.8741 887.211 59.9H877.211C877.211 80.7259 864.891 92.2576 851.33 99.6035L856.092 108.396ZM887.211 59.9C887.211 40.5079 879.074 24.8761 865.368 14.2157C851.789 3.65405 833.067 -1.80001 812.011 -1.80001V8.19999C831.455 8.19999 847.833 13.2459 859.229 22.1093C870.498 30.8739 877.211 43.592 877.211 59.9H887.211ZM812.011 -1.80001C790.955 -1.80001 772.233 3.65405 758.654 14.2157C744.948 24.8761 736.811 40.5079 736.811 59.9H746.811C746.811 43.592 753.524 30.8739 764.793 22.1093C776.189 13.2459 792.567 8.19999 812.011 8.19999V-1.80001ZM736.811 59.9C736.811 85.8427 752.352 100.131 767.967 108.417L772.655 99.5833C758.87 92.2691 746.811 80.7573 746.811 59.9H736.811ZM765.311 104V104.6H775.311V104H765.311ZM768.3 100.022C758.03 104.535 747.685 110.763 739.887 119.874C731.996 129.094 726.911 141.043 726.911 156.5H736.911C736.911 143.457 741.125 133.806 747.485 126.376C753.937 118.837 762.792 113.365 772.322 109.178L768.3 100.022ZM812.011 86.7C801.101 86.7 792.971 84.2787 787.674 80.1456C782.567 76.1604 779.511 70.1339 779.511 61.4H769.511C769.511 72.7661 773.654 81.8896 781.522 88.0293C789.201 94.0213 799.821 96.7 812.011 96.7V86.7ZM779.511 61.4C779.511 52.8288 782.561 46.6961 787.716 42.5837C793.03 38.3448 801.161 35.8 812.011 35.8V25.8C799.761 25.8 789.141 28.6552 781.48 34.7662C773.661 41.0039 769.511 50.1712 769.511 61.4H779.511ZM812.011 35.8C822.861 35.8 830.991 38.3448 836.305 42.5837C841.461 46.6961 844.511 52.8288 844.511 61.4H854.511C854.511 50.1712 850.361 41.0039 842.541 34.7662C834.88 28.6552 824.261 25.8 812.011 25.8V35.8ZM844.511 61.4C844.511 70.1339 841.454 76.1604 836.347 80.1456C831.051 84.2787 822.921 86.7 812.011 86.7V96.7C824.201 96.7 834.821 94.0213 842.499 88.0293C850.367 81.8896 854.511 72.7661 854.511 61.4H844.511ZM812.011 186C798.823 186 788.639 182.734 781.863 177.338C775.218 172.048 771.411 164.378 771.411 154.4H761.411C761.411 167.222 766.453 177.852 775.634 185.162C784.682 192.366 797.298 196 812.011 196V186ZM771.411 154.4C771.411 144.594 775.202 136.996 781.852 131.733C788.633 126.366 798.824 123.1 812.011 123.1V113.1C797.298 113.1 784.689 116.734 775.645 123.892C766.47 131.154 761.411 141.706 761.411 154.4H771.411ZM812.011 123.1C825.359 123.1 835.54 126.371 842.274 131.726C848.874 136.974 852.611 144.566 852.611 154.4H862.611C862.611 141.734 857.648 131.176 848.498 123.899C839.482 116.729 826.863 113.1 812.011 113.1V123.1ZM852.611 154.4C852.611 164.406 848.857 172.07 842.262 177.346C835.533 182.729 825.359 186 812.011 186V196C826.862 196 839.489 192.371 848.509 185.154C857.664 177.83 862.611 167.194 862.611 154.4H852.611Z" fill="black"/>
</svg>
