<svg width="338" height="80" viewBox="0 0 338 80" fill="none" xmlns="http://www.w3.org/2000/svg">
<path d="M0.4 0.779996V78H19.84V0.779996H0.4ZM30.4561 78H49.8961V32.1H50.1121L77.1121 78H96.5521V0.779996H77.1121V46.68H76.8961L49.8961 0.779996H30.4561V78ZM126.572 33.612V16.656H164.588V0.779996H107.132V78H126.572V49.488H157.568V33.612H126.572ZM172.209 0.779996V78H191.649V0.779996H172.209ZM202.265 78H221.705V32.1H221.921L248.921 78H268.361V0.779996H248.921V46.68H248.705L221.705 0.779996H202.265V78ZM275.7 56.616C275.7 71.952 289.524 79.728 306.588 79.728C323.652 79.728 337.476 71.952 337.476 56.616C337.476 46.572 330.456 40.956 323.436 37.824V37.608C328.62 34.8 334.236 30.264 334.236 21.84C334.236 8.98799 321.924 1.644 306.588 1.644C291.252 1.644 278.94 8.98799 278.94 21.84C278.94 30.264 284.448 34.8 289.74 37.608V37.824C282.612 40.956 275.7 46.572 275.7 56.616ZM306.588 32.748C299.028 32.748 295.14 28.536 295.14 23.46C295.14 18.6 299.028 14.28 306.588 14.28C314.148 14.28 318.036 18.6 318.036 23.46C318.036 28.536 314.148 32.748 306.588 32.748ZM306.588 66.012C298.704 66.012 294.06 60.936 294.06 54.888C294.06 49.056 298.704 43.98 306.588 43.98C314.472 43.98 319.116 49.056 319.116 54.888C319.116 60.936 314.472 66.012 306.588 66.012Z" fill="black"/>
<path d="M0.4 0.779997V-0.220003H-0.6V0.779997H0.4ZM0.4 78H-0.6V79H0.4V78ZM19.84 78V79H20.84V78H19.84ZM19.84 0.779997H20.84V-0.220003H19.84V0.779997ZM-0.6 0.779997V78H1.4V0.779997H-0.6ZM0.4 79H19.84V77H0.4V79ZM20.84 78V0.779997H18.84V78H20.84ZM19.84 -0.220003H0.4V1.78H19.84V-0.220003ZM30.4561 78H29.4561V79H30.4561V78ZM49.8961 78V79H50.8961V78H49.8961ZM49.8961 32.1V31.1H48.8961V32.1H49.8961ZM50.1121 32.1L50.974 31.593L50.684 31.1H50.1121V32.1ZM77.1121 78L76.2501 78.507L76.5401 79H77.1121V78ZM96.5521 78V79H97.5521V78H96.5521ZM96.5521 0.779997H97.5521V-0.220003H96.5521V0.779997ZM77.1121 0.779997V-0.220003H76.1121V0.779997H77.1121ZM77.1121 46.68V47.68H78.1121V46.68H77.1121ZM76.8961 46.68L76.0341 47.187L76.3241 47.68H76.8961V46.68ZM49.8961 0.779997L50.758 0.272976L50.468 -0.220003H49.8961V0.779997ZM30.4561 0.779997V-0.220003H29.4561V0.779997H30.4561ZM30.4561 79H49.8961V77H30.4561V79ZM50.8961 78V32.1H48.8961V78H50.8961ZM49.8961 33.1H50.1121V31.1H49.8961V33.1ZM49.2501 32.607L76.2501 78.507L77.974 77.493L50.974 31.593L49.2501 32.607ZM77.1121 79H96.5521V77H77.1121V79ZM97.5521 78V0.779997H95.5521V78H97.5521ZM96.5521 -0.220003H77.1121V1.78H96.5521V-0.220003ZM76.1121 0.779997V46.68H78.1121V0.779997H76.1121ZM77.1121 45.68H76.8961V47.68H77.1121V45.68ZM77.758 46.173L50.758 0.272976L49.0341 1.28702L76.0341 47.187L77.758 46.173ZM49.8961 -0.220003H30.4561V1.78H49.8961V-0.220003ZM29.4561 0.779997V78H31.4561V0.779997H29.4561ZM126.572 33.612H125.572V34.612H126.572V33.612ZM126.572 16.656V15.656H125.572V16.656H126.572ZM164.588 16.656V17.656H165.588V16.656H164.588ZM164.588 0.779997H165.588V-0.220003H164.588V0.779997ZM107.132 0.779997V-0.220003H106.132V0.779997H107.132ZM107.132 78H106.132V79H107.132V78ZM126.572 78V79H127.572V78H126.572ZM126.572 49.488V48.488H125.572V49.488H126.572ZM157.568 49.488V50.488H158.568V49.488H157.568ZM157.568 33.612H158.568V32.612H157.568V33.612ZM127.572 33.612V16.656H125.572V33.612H127.572ZM126.572 17.656H164.588V15.656H126.572V17.656ZM165.588 16.656V0.779997H163.588V16.656H165.588ZM164.588 -0.220003H107.132V1.78H164.588V-0.220003ZM106.132 0.779997V78H108.132V0.779997H106.132ZM107.132 79H126.572V77H107.132V79ZM127.572 78V49.488H125.572V78H127.572ZM126.572 50.488H157.568V48.488H126.572V50.488ZM158.568 49.488V33.612H156.568V49.488H158.568ZM157.568 32.612H126.572V34.612H157.568V32.612ZM172.209 0.779997V-0.220003H171.209V0.779997H172.209ZM172.209 78H171.209V79H172.209V78ZM191.649 78V79H192.649V78H191.649ZM191.649 0.779997H192.649V-0.220003H191.649V0.779997ZM171.209 0.779997V78H173.209V0.779997H171.209ZM172.209 79H191.649V77H172.209V79ZM192.649 78V0.779997H190.649V78H192.649ZM191.649 -0.220003H172.209V1.78H191.649V-0.220003ZM202.265 78H201.265V79H202.265V78ZM221.705 78V79H222.705V78H221.705ZM221.705 32.1V31.1H220.705V32.1H221.705ZM221.921 32.1L222.783 31.593L222.493 31.1H221.921V32.1ZM248.921 78L248.059 78.507L248.349 79H248.921V78ZM268.361 78V79H269.361V78H268.361ZM268.361 0.779997H269.361V-0.220003H268.361V0.779997ZM248.921 0.779997V-0.220003H247.921V0.779997H248.921ZM248.921 46.68V47.68H249.921V46.68H248.921ZM248.705 46.68L247.843 47.187L248.133 47.68H248.705V46.68ZM221.705 0.779997L222.567 0.272976L222.277 -0.220003H221.705V0.779997ZM202.265 0.779997V-0.220003H201.265V0.779997H202.265ZM202.265 79H221.705V77H202.265V79ZM222.705 78V32.1H220.705V78H222.705ZM221.705 33.1H221.921V31.1H221.705V33.1ZM221.059 32.607L248.059 78.507L249.783 77.493L222.783 31.593L221.059 32.607ZM248.921 79H268.361V77H248.921V79ZM269.361 78V0.779997H267.361V78H269.361ZM268.361 -0.220003H248.921V1.78H268.361V-0.220003ZM247.921 0.779997V46.68H249.921V0.779997H247.921ZM248.921 45.68H248.705V47.68H248.921V45.68ZM249.567 46.173L222.567 0.272976L220.843 1.28702L247.843 47.187L249.567 46.173ZM221.705 -0.220003H202.265V1.78H221.705V-0.220003ZM201.265 0.779997V78H203.265V0.779997H201.265ZM323.436 37.824H322.436V38.4729L323.029 38.7372L323.436 37.824ZM323.436 37.608L322.96 36.7287L322.436 37.0124V37.608H323.436ZM289.74 37.608H290.74V37.0066L290.209 36.7247L289.74 37.608ZM289.74 37.824L290.143 38.7395L290.74 38.4769V37.824H289.74ZM274.7 56.616C274.7 64.6321 278.334 70.7095 284.177 74.7458C289.982 78.756 297.922 80.728 306.588 80.728V78.728C298.191 78.728 290.687 76.812 285.314 73.1002C279.979 69.4145 276.7 63.9359 276.7 56.616H274.7ZM306.588 80.728C315.255 80.728 323.195 78.756 329 74.7458C334.843 70.7095 338.476 64.6321 338.476 56.616H336.476C336.476 63.9359 333.198 69.4145 327.863 73.1002C322.49 76.812 314.986 78.728 306.588 78.728V80.728ZM338.476 56.616C338.476 45.984 331.006 40.1063 323.844 36.9108L323.029 38.7372C329.907 41.8057 336.476 47.16 336.476 56.616H338.476ZM324.436 37.824V37.608H322.436V37.824H324.436ZM323.913 38.4873C329.202 35.6223 335.236 30.8252 335.236 21.84H333.236C333.236 29.7028 328.039 33.9777 322.96 36.7287L323.913 38.4873ZM335.236 21.84C335.236 15.0474 331.964 9.70578 326.731 6.09911C321.527 2.51241 314.401 0.643997 306.588 0.643997V2.644C314.112 2.644 320.81 4.44758 325.596 7.74589C330.353 11.0242 333.236 15.7806 333.236 21.84H335.236ZM306.588 0.643997C298.776 0.643997 291.65 2.51241 286.446 6.09911C281.213 9.70578 277.94 15.0474 277.94 21.84H279.94C279.94 15.7806 282.824 11.0242 287.581 7.74589C292.367 4.44758 299.065 2.644 306.588 2.644V0.643997ZM277.94 21.84C277.94 30.8202 283.859 35.6193 289.272 38.4913L290.209 36.7247C285.038 33.9807 279.94 29.7078 279.94 21.84H277.94ZM288.74 37.608V37.824H290.74V37.608H288.74ZM289.338 36.9085C282.056 40.108 274.7 45.9882 274.7 56.616H276.7C276.7 47.1558 283.168 41.804 290.143 38.7395L289.338 36.9085ZM306.588 31.748C302.991 31.748 300.384 30.7478 298.69 29.2569C297.004 27.7725 296.14 25.7314 296.14 23.46H294.14C294.14 26.2646 295.221 28.8675 297.369 30.7581C299.509 32.6422 302.626 33.748 306.588 33.748V31.748ZM296.14 23.46C296.14 21.3068 296.997 19.2889 298.69 17.7981C300.388 16.3036 302.998 15.28 306.588 15.28V13.28C302.619 13.28 299.505 14.4164 297.369 16.2969C295.228 18.1811 294.14 20.7532 294.14 23.46H296.14ZM306.588 15.28C310.179 15.28 312.789 16.3036 314.487 17.7981C316.18 19.2889 317.036 21.3068 317.036 23.46H319.036C319.036 20.7532 317.949 18.1811 315.808 16.2969C313.672 14.4164 310.558 13.28 306.588 13.28V15.28ZM317.036 23.46C317.036 25.7314 316.173 27.7725 314.487 29.2569C312.793 30.7478 310.186 31.748 306.588 31.748V33.748C310.551 33.748 313.668 32.6422 315.808 30.7581C317.956 28.8675 319.036 26.2646 319.036 23.46H317.036ZM306.588 65.012C302.866 65.012 299.991 63.8173 298.054 61.9906C296.117 60.1631 295.06 57.6494 295.06 54.888H293.06C293.06 58.1746 294.326 61.2229 296.682 63.4454C299.038 65.6687 302.427 67.012 306.588 67.012V65.012ZM295.06 54.888C295.06 49.6746 299.188 44.98 306.588 44.98V42.98C298.221 42.98 293.06 48.4374 293.06 54.888H295.06ZM306.588 44.98C313.989 44.98 318.116 49.6746 318.116 54.888H320.116C320.116 48.4374 314.956 42.98 306.588 42.98V44.98ZM318.116 54.888C318.116 57.6494 317.06 60.1631 315.123 61.9906C313.186 63.8173 310.311 65.012 306.588 65.012V67.012C310.75 67.012 314.138 65.6687 316.495 63.4454C318.851 61.2229 320.116 58.1746 320.116 54.888H318.116Z" fill="black"/>
</svg>
