<svg width="994" height="411" viewBox="0 0 994 411" fill="none" xmlns="http://www.w3.org/2000/svg">
<path d="M419.588 410.98L386.692 321.354L357.663 410.98H0V0.522888H357.088L386.692 91.9338L420.243 0.522888H994V410.98H419.588ZM390.648 107.747C390.651 107.19 390.536 106.639 390.312 106.13C390.088 105.62 389.759 105.163 389.347 104.789C388.934 104.415 388.447 104.132 387.918 103.958C387.389 103.785 386.83 103.724 386.276 103.782C385.248 103.9 384.302 104.397 383.621 105.177C382.941 105.956 382.576 106.961 382.597 107.995V161.146C382.597 162.214 383.022 163.238 383.776 163.993C384.531 164.748 385.555 165.172 386.623 165.172C387.69 165.172 388.714 164.748 389.469 163.993C390.224 163.238 390.648 162.214 390.648 161.146V107.747ZM390.648 179.746C390.668 178.715 390.305 177.714 389.629 176.936C388.953 176.157 388.013 175.657 386.99 175.532C386.432 175.483 385.87 175.55 385.34 175.729C384.81 175.908 384.323 176.196 383.91 176.573C383.497 176.951 383.167 177.41 382.941 177.922C382.715 178.434 382.598 178.988 382.597 179.548V232.927C382.597 233.994 383.022 235.018 383.776 235.773C384.531 236.528 385.555 236.952 386.623 236.952C387.69 236.952 388.714 236.528 389.469 235.773C390.224 235.018 390.648 233.994 390.648 232.927V179.746ZM390.648 251.526C390.668 250.497 390.304 249.497 389.628 248.72C388.952 247.943 388.012 247.445 386.99 247.323C386.436 247.272 385.878 247.336 385.35 247.512C384.823 247.688 384.338 247.971 383.925 248.343C383.512 248.716 383.181 249.17 382.953 249.677C382.724 250.184 382.603 250.732 382.597 251.288V304.717C382.597 305.785 383.022 306.809 383.776 307.563C384.531 308.318 385.555 308.742 386.623 308.742C387.69 308.742 388.714 308.318 389.469 307.563C390.224 306.809 390.648 305.785 390.648 304.717V251.526Z" fill="url(#paint0_linear_486_182)"/>
<defs>
<linearGradient id="paint0_linear_486_182" x1="1108.17" y1="504.165" x2="-1044.34" y2="-546.763" gradientUnits="userSpaceOnUse">
<stop stop-color="white"/>
<stop offset="1" stop-color="#CECECE"/>
</linearGradient>
</defs>
</svg>
